# Blender v2.93.5 OBJ File: ''
# www.blender.org
mtllib basetest2.mtl
o Cube
v 80.000000 3.000000 -50.000000
v 80.000000 -3.000000 -50.000000
v 80.000000 3.000000 50.000000
v 80.000000 -3.000000 50.000000
v -80.000000 3.000000 -50.000000
v -80.000000 -3.000000 -50.000000
v -80.000000 3.000000 50.000000
v -80.000000 -3.000000 50.000000
v 60.197369 -3.000000 0.987848
v 60.188988 -3.000000 0.988587
v 60.265724 3.000000 1.199742
v 60.006100 3.000000 1.222646
v 60.000000 -3.000000 1.007202
v 60.000000 3.000000 1.223247
v 59.991627 -3.000000 1.006463
v 59.740372 3.000000 1.200343
v 59.734276 3.000000 1.199742
v 59.802631 -3.000000 0.987848
v 59.484631 3.000000 1.131911
v 59.794579 -3.000000 0.985660
v 59.478764 3.000000 1.130133
v 58.637943 3.000000 -0.000000
v 58.665894 3.000000 0.244506
v 58.664116 3.000000 0.238644
v 59.612846 -3.000000 0.930533
v 58.739849 3.000000 -0.462254
v 58.664116 3.000000 -0.238644
v 59.032997 3.000000 -0.860230
v 58.867496 3.000000 -0.679599
v 58.864609 3.000000 -0.674197
v 58.741627 3.000000 -0.468116
v 58.871384 3.000000 0.684335
v 58.867496 3.000000 0.679600
v 58.744511 3.000000 0.473519
v 58.741627 3.000000 0.468116
v 59.243282 3.000000 1.017092
v 59.248688 3.000000 1.019980
v 59.041618 3.000000 0.868853
v 59.473362 3.000000 -1.127245
v 59.243282 3.000000 -1.017092
v 59.238548 3.000000 -1.013206
v 59.036884 3.000000 -0.864966
v 59.993900 3.000000 -1.222646
v 59.734276 3.000000 -1.199742
v 59.728413 3.000000 -1.197964
v 59.478764 3.000000 -1.130133
v 59.036884 3.000000 0.864966
v 60.521236 3.000000 1.130133
v 60.271587 3.000000 1.197964
v 60.515369 3.000000 -1.131911
v 60.265724 3.000000 -1.199742
v 60.259628 3.000000 -1.200343
v 60.963116 3.000000 0.864966
v 60.761448 3.000000 1.013206
v 60.756714 3.000000 1.017093
v 60.526638 3.000000 1.127245
v 60.958382 3.000000 -0.868852
v 60.756714 3.000000 -1.017092
v 60.751308 3.000000 -1.019980
v 59.605423 -3.000000 0.926979
v 60.521236 3.000000 -1.130133
v 61.258373 3.000000 0.468116
v 61.135391 3.000000 0.674197
v 61.132504 3.000000 0.679599
v 60.967003 3.000000 0.860231
v 61.362053 3.000000 0.000000
v 61.335884 3.000000 0.238644
v 61.260151 3.000000 0.462254
v 61.335884 3.000000 -0.238644
v 61.334106 3.000000 -0.244506
v 61.258373 3.000000 -0.468116
v 61.255489 3.000000 -0.473519
v 61.132504 3.000000 -0.679600
v 61.128616 3.000000 -0.684335
v 60.963116 3.000000 -0.864966
v 59.437939 -3.000000 0.837457
v 60.000000 3.000000 -1.223247
v 59.431435 -3.000000 0.832675
v 59.284634 -3.000000 0.712199
v 59.279293 -3.000000 0.706372
v 59.158817 -3.000000 0.559571
v 59.154854 -3.000000 0.552924
v 59.065327 -3.000000 0.385439
v 59.062885 -3.000000 0.378226
v 58.988323 -3.000000 -0.000000
v 59.007759 -3.000000 0.196495
v 59.007759 -3.000000 -0.196495
v 59.164158 -3.000000 -0.565398
v 59.158817 -3.000000 -0.559571
v 59.069294 -3.000000 -0.392087
v 59.065327 -3.000000 -0.385439
v 59.010201 -3.000000 -0.203709
v 59.445362 -3.000000 -0.841011
v 59.437939 -3.000000 -0.837457
v 59.291138 -3.000000 -0.716981
v 59.284634 -3.000000 -0.712199
v 59.811012 -3.000000 -0.988587
v 59.802631 -3.000000 -0.987848
v 59.620899 -3.000000 -0.932721
v 59.612846 -3.000000 -0.930533
v 60.387154 -3.000000 0.930533
v 60.379101 -3.000000 0.932721
v 60.205421 -3.000000 -0.985660
v 60.197369 -3.000000 -0.987848
v 60.008373 -3.000000 -1.006463
v 60.715366 -3.000000 0.712199
v 60.708862 -3.000000 0.716981
v 60.562061 -3.000000 0.837457
v 60.554638 -3.000000 0.841011
v 60.568565 -3.000000 -0.832676
v 60.562061 -3.000000 -0.837457
v 60.394577 -3.000000 -0.926979
v 60.387154 -3.000000 -0.930533
v 60.934673 -3.000000 0.385439
v 60.930706 -3.000000 0.392087
v 60.841183 -3.000000 0.559571
v 60.835842 -3.000000 0.565398
v 61.011677 -3.000000 0.000000
v 60.992241 -3.000000 0.196495
v 60.992241 -3.000000 -0.196495
v 60.937115 -3.000000 -0.378226
v 60.989799 -3.000000 0.203709
v 60.934673 -3.000000 -0.385439
v 60.845146 -3.000000 -0.552923
v 60.841183 -3.000000 -0.559571
v 60.720707 -3.000000 -0.706372
v 60.715366 -3.000000 -0.712199
v 60.000000 -3.000000 -1.007202
vt 0.657064 0.622175
vt 0.656674 0.622005
vt 0.656665 0.622001
vt 0.656260 0.621943
vt 0.656250 0.621942
vt 0.655844 0.621999
vt 0.655835 0.622001
vt 0.625000 0.500000
vt 0.875000 0.500000
vt 0.875000 0.750000
vt 0.625000 0.750000
vt 0.655835 0.627999
vt 0.656240 0.628057
vt 0.656250 0.628058
vt 0.656656 0.628001
vt 0.656665 0.627999
vt 0.657055 0.627830
vt 0.657064 0.627825
vt 0.657424 0.627550
vt 0.657432 0.627543
vt 0.657747 0.627172
vt 0.657755 0.627162
vt 0.658013 0.626711
vt 0.658019 0.626699
vt 0.658212 0.626184
vt 0.658216 0.626170
vt 0.658334 0.625611
vt 0.658337 0.625597
vt 0.658378 0.625000
vt 0.658337 0.624403
vt 0.658219 0.623844
vt 0.658216 0.623830
vt 0.658024 0.623314
vt 0.658019 0.623301
vt 0.657761 0.622849
vt 0.657755 0.622838
vt 0.657440 0.622467
vt 0.657432 0.622457
vt 0.657073 0.622182
vt 0.655436 0.627825
vt 0.655826 0.627995
vt 0.655445 0.622170
vt 0.655436 0.622175
vt 0.655076 0.622450
vt 0.655068 0.622457
vt 0.654752 0.622828
vt 0.654745 0.622838
vt 0.654487 0.623289
vt 0.654480 0.623301
vt 0.654288 0.623816
vt 0.654284 0.623830
vt 0.654166 0.624389
vt 0.654163 0.624403
vt 0.654122 0.625000
vt 0.654163 0.625597
vt 0.654281 0.626156
vt 0.654284 0.626170
vt 0.654476 0.626686
vt 0.654481 0.626699
vt 0.654739 0.627151
vt 0.654745 0.627162
vt 0.655060 0.627533
vt 0.655068 0.627543
vt 0.655427 0.627818
vt 0.375000 0.750000
vt 0.625000 1.000000
vt 0.375000 1.000000
vt 0.375000 0.000000
vt 0.625000 0.000000
vt 0.625000 0.250000
vt 0.375000 0.250000
vt 0.344868 0.626780
vt 0.345056 0.626414
vt 0.345064 0.626399
vt 0.345204 0.625980
vt 0.345210 0.625964
vt 0.345297 0.625509
vt 0.345300 0.625491
vt 0.345331 0.625000
vt 0.345300 0.624509
vt 0.345214 0.624054
vt 0.345210 0.624036
vt 0.345071 0.623618
vt 0.345064 0.623601
vt 0.344876 0.623234
vt 0.344868 0.623219
vt 0.344638 0.622918
vt 0.344628 0.622906
vt 0.344367 0.622683
vt 0.344355 0.622674
vt 0.344071 0.622536
vt 0.344058 0.622530
vt 0.375000 0.500000
vt 0.344058 0.627470
vt 0.344342 0.627332
vt 0.344355 0.627326
vt 0.344617 0.627102
vt 0.344628 0.627094
vt 0.344858 0.626792
vt 0.125000 0.750000
vt 0.125000 0.500000
vt 0.343763 0.622484
vt 0.343750 0.622482
vt 0.343455 0.622529
vt 0.343442 0.622530
vt 0.343158 0.622668
vt 0.343145 0.622674
vt 0.342883 0.622898
vt 0.342872 0.622906
vt 0.342642 0.623208
vt 0.342632 0.623219
vt 0.342444 0.623586
vt 0.342436 0.623601
vt 0.342296 0.624020
vt 0.342290 0.624036
vt 0.342203 0.624491
vt 0.342200 0.624509
vt 0.342169 0.625000
vt 0.342200 0.625491
vt 0.342286 0.625946
vt 0.342290 0.625964
vt 0.342429 0.626382
vt 0.342436 0.626399
vt 0.342624 0.626766
vt 0.342632 0.626781
vt 0.342862 0.627082
vt 0.342872 0.627094
vt 0.343133 0.627317
vt 0.343145 0.627326
vt 0.343429 0.627464
vt 0.343442 0.627470
vt 0.343737 0.627516
vt 0.343750 0.627518
vt 0.344045 0.627471
vt 0.969467 0.984375
vt 1.000000 0.984375
vt 1.000000 0.515625
vt 0.998677 0.515625
vt 0.968750 0.515625
vt 0.968750 0.984375
vt 0.938226 0.984375
vt 0.967440 0.515625
vt 0.937500 0.515625
vt 0.937500 0.984375
vt 0.906990 0.984375
vt 0.936214 0.515625
vt 0.906250 0.515625
vt 0.906250 0.984375
vt 0.904991 0.515625
vt 0.875000 0.515625
vt 0.875000 0.984375
vt 0.875756 0.984375
vt 0.843750 0.984375
vt 0.844522 0.984375
vt 0.873765 0.515625
vt 0.843750 0.515625
vt 0.812500 0.984375
vt 0.813284 0.984375
vt 0.843750 0.984375
vt 0.842536 0.515625
vt 0.812500 0.515625
vt 0.781250 0.984375
vt 0.782043 0.984375
vt 0.811299 0.515625
vt 0.781250 0.515625
vt 0.750000 0.984375
vt 0.750000 0.515625
vt 0.718750 0.515625
vt 0.718750 0.984375
vt 0.688293 0.984375
vt 0.717549 0.515625
vt 0.687500 0.515625
vt 0.687500 0.984375
vt 0.657034 0.984375
vt 0.686286 0.515625
vt 0.656250 0.515625
vt 0.656250 0.984375
vt 0.625771 0.984375
vt 0.655016 0.515625
vt 0.625000 0.515625
vt 0.625000 0.984375
vt 0.594505 0.984375
vt 0.623741 0.515625
vt 0.593750 0.515625
vt 0.593750 0.984375
vt 0.562500 0.984375
vt 0.563239 0.984375
vt 0.593750 0.515625
vt 0.592463 0.515625
vt 0.562500 0.515625
vt 0.561190 0.515625
vt 0.531250 0.515625
vt 0.531250 0.984375
vt 0.531976 0.984375
vt 0.500000 0.984375
vt 0.500718 0.984375
vt 0.529925 0.515625
vt 0.500000 0.515625
vt 0.469468 0.984375
vt 0.498676 0.515625
vt 0.468750 0.515625
vt 0.468750 0.984375
vt 0.438226 0.984375
vt 0.467440 0.515625
vt 0.437500 0.515625
vt 0.437500 0.984375
vt 0.406990 0.984375
vt 0.436214 0.515625
vt 0.406250 0.515625
vt 0.406250 0.984375
vt 0.404991 0.515625
vt 0.375000 0.515625
vt 0.375000 0.984375
vt 0.375756 0.984375
vt 0.343750 0.515625
vt 0.343750 0.984375
vt 0.344521 0.984375
vt 0.373765 0.515625
vt 0.312500 0.515625
vt 0.312500 0.984375
vt 0.313284 0.984375
vt 0.342536 0.515625
vt 0.281250 0.515625
vt 0.281250 0.984375
vt 0.282043 0.984375
vt 0.311299 0.515625
vt 0.250000 0.515625
vt 0.250000 0.984375
vt 0.218750 0.515625
vt 0.218750 0.984375
vt 0.188293 0.984375
vt 0.217549 0.515625
vt 0.187500 0.515625
vt 0.187500 0.984375
vt 0.157034 0.984375
vt 0.186286 0.515625
vt 0.156250 0.515625
vt 0.156250 0.984375
vt 0.125771 0.984375
vt 0.155016 0.515625
vt 0.125000 0.515625
vt 0.125000 0.984375
vt 0.094506 0.984375
vt 0.123741 0.515625
vt 0.093750 0.515625
vt 0.093750 0.984375
vt 0.062500 0.515625
vt 0.062500 0.984375
vt 0.063240 0.984375
vt 0.092464 0.515625
vt 0.031250 0.515625
vt 0.031250 0.984375
vt 0.031976 0.984375
vt 0.061189 0.515625
vt 0.000000 0.515625
vt 0.000000 0.984375
vt 0.000718 0.984375
vt 0.029925 0.515625
vn 0.0000 1.0000 -0.0000
vn 0.0000 0.0000 1.0000
vn -1.0000 0.0000 0.0000
vn 0.0000 -1.0000 0.0000
vn 1.0000 0.0000 0.0000
vn 0.0000 0.0000 -1.0000
vn -0.0921 0.0360 0.9951
vn -0.2739 0.0376 0.9610
vn -0.4485 0.0405 0.8929
vn -0.6101 0.0444 0.7911
vn -0.7523 0.0487 0.6570
vn -0.8680 0.0528 0.4938
vn -0.9501 0.0560 0.3067
vn -0.9929 0.0578 0.1041
vn -0.9929 0.0578 -0.1041
vn -0.9501 0.0560 -0.3067
vn -0.8680 0.0528 -0.4938
vn -0.7523 0.0487 -0.6570
vn -0.6101 0.0444 -0.7911
vn -0.4485 0.0405 -0.8929
vn -0.2739 0.0376 -0.9610
vn -0.0921 0.0360 -0.9951
vn 0.0921 0.0360 -0.9951
vn 0.2739 0.0376 -0.9610
vn 0.4484 0.0405 -0.8929
vn 0.6101 0.0444 -0.7911
vn 0.7523 0.0487 -0.6570
vn 0.8680 0.0528 -0.4938
vn 0.9501 0.0560 -0.3067
vn 0.9929 0.0578 -0.1041
vn 0.9929 0.0578 0.1041
vn 0.9501 0.0560 0.3067
vn 0.8680 0.0528 0.4938
vn 0.7523 0.0487 0.6570
vn 0.6101 0.0444 0.7911
vn 0.4484 0.0405 0.8929
vn 0.2739 0.0376 0.9610
vn 0.0921 0.0360 0.9951
usemtl Material
s off
f 46/1/1 45/2/1 44/3/1 43/4/1 77/5/1 52/6/1 51/7/1 1/8/1 5/9/1 7/10/1 3/11/1 11/12/1 12/13/1 14/14/1 16/15/1 17/16/1 19/17/1 21/18/1 37/19/1 36/20/1 38/21/1 47/22/1 32/23/1 33/24/1 34/25/1 35/26/1 23/27/1 24/28/1 22/29/1 27/30/1 26/31/1 31/32/1 30/33/1 29/34/1 28/35/1 42/36/1 41/37/1 40/38/1 39/39/1
f 48/40/1 49/41/1 11/12/1 3/11/1 1/8/1 51/7/1 50/42/1 61/43/1 59/44/1 58/45/1 57/46/1 75/47/1 74/48/1 73/49/1 72/50/1 71/51/1 70/52/1 69/53/1 66/54/1 67/55/1 68/56/1 62/57/1 63/58/1 64/59/1 65/60/1 53/61/1 54/62/1 55/63/1 56/64/1
f 4/65/2 3/11/2 7/66/2 8/67/2
f 8/68/3 7/69/3 5/70/3 6/71/3
f 106/72/4 117/73/4 116/74/4 115/75/4 114/76/4 122/77/4 119/78/4 118/79/4 120/80/4 121/81/4 123/82/4 124/83/4 125/84/4 126/85/4 127/86/4 110/87/4 111/88/4 112/89/4 113/90/4 103/91/4 104/92/4 2/93/4 4/65/4 9/94/4 102/95/4 101/96/4 109/97/4 108/98/4 107/99/4
f 9/94/4 4/65/4 8/100/4 6/101/4 2/93/4 104/92/4 105/102/4 128/103/4 97/104/4 98/105/4 99/106/4 100/107/4 93/108/4 94/109/4 95/110/4 96/111/4 88/112/4 89/113/4 90/114/4 91/115/4 92/116/4 87/117/4 85/118/4 86/119/4 84/120/4 83/121/4 82/122/4 81/123/4 80/124/4 79/125/4 78/126/4 76/127/4 60/128/4 25/129/4 20/130/4 18/131/4 15/132/4 13/133/4 10/134/4
f 2/93/5 1/8/5 3/11/5 4/65/5
f 6/71/6 5/70/6 1/8/6 2/93/6
f 52/135/7 77/136/7 128/137/7 105/138/7 104/139/7 51/140/7
f 50/141/8 51/140/8 104/139/8 103/142/8 113/143/8 61/144/8
f 59/145/9 61/144/9 113/143/9 112/146/9 111/147/9 58/148/9
f 110/149/10 127/150/10 75/151/10 57/152/10 58/148/10 111/147/10
f 73/153/11 74/154/11 75/151/11 127/150/11 126/155/11 125/156/11
f 71/157/12 72/158/12 73/159/12 125/156/12 124/160/12 123/161/12
f 69/162/13 70/163/13 71/157/13 123/161/13 121/164/13 120/165/13
f 66/166/14 69/162/14 120/165/14 118/167/14
f 66/166/15 118/167/15 119/168/15 67/169/15
f 68/170/16 67/169/16 119/168/16 122/171/16 114/172/16 62/173/16
f 63/174/17 62/173/17 114/172/17 115/175/17 116/176/17 64/177/17
f 65/178/18 64/177/18 116/176/18 117/179/18 106/180/18 53/181/18
f 54/182/19 53/181/19 106/180/19 107/183/19 108/184/19 55/185/19
f 48/186/20 56/187/20 55/185/20 108/188/20 109/189/20 101/190/20
f 102/191/21 9/192/21 11/193/21 49/194/21 48/186/21 101/190/21
f 14/195/22 12/196/22 11/193/22 9/192/22 10/197/22 13/198/22
f 16/199/23 14/195/23 13/198/23 15/200/23 18/201/23 17/202/23
f 19/203/24 17/202/24 18/201/24 20/204/24 25/205/24 21/206/24
f 37/207/25 21/206/25 25/205/25 60/208/25 76/209/25 36/210/25
f 78/211/26 79/212/26 47/213/26 38/214/26 36/210/26 76/209/26
f 81/215/27 33/216/27 32/217/27 47/213/27 79/212/27 80/218/27
f 83/219/28 35/220/28 34/221/28 33/216/28 81/215/28 82/222/28
f 86/223/29 24/224/29 23/225/29 35/220/29 83/219/29 84/226/29
f 85/227/30 22/228/30 24/224/30 86/223/30
f 22/228/31 85/227/31 87/229/31 27/230/31
f 26/231/32 27/230/32 87/229/32 92/232/32 91/233/32 31/234/32
f 30/235/33 31/234/33 91/233/33 90/236/33 89/237/33 29/238/33
f 28/239/34 29/238/34 89/237/34 88/240/34 96/241/34 42/242/34
f 41/243/35 42/242/35 96/241/35 95/244/35 94/245/35 40/246/35
f 100/247/36 46/248/36 39/249/36 40/246/36 94/245/36 93/250/36
f 98/251/37 44/252/37 45/253/37 46/248/37 100/247/37 99/254/37
f 128/255/38 77/256/38 43/257/38 44/252/38 98/251/38 97/258/38
